/* XPM */
static char *udzCl3LO[] = {
/* columns rows colors chars-per-pixel */
"32 32 113 2 ",
"   c #252726",
".  c #272827",
"X  c #252A2D",
"o  c #2A2B29",
"O  c #2F302E",
"+  c #2D3539",
"@  c #343432",
"#  c #383733",
"$  c #373937",
"%  c #3B3B36",
"&  c #353B3D",
"*  c #3C3E3B",
"=  c #3F413D",
"-  c #42423E",
";  c #363C40",
":  c #383F40",
">  c #3D4343",
",  c #3F464A",
"<  c #434643",
"1  c #494741",
"2  c #444846",
"3  c #4B4B45",
"4  c #414749",
"5  c #444A4A",
"6  c #4B4E4B",
"7  c #504E46",
"8  c #514F49",
"9  c #4E514E",
"0  c #54534C",
"q  c #59574E",
"w  c #424D53",
"e  c #4D5455",
"r  c #4D575B",
"t  c #4F5858",
"y  c #545652",
"u  c #595751",
"i  c #555855",
"p  c #5C5B54",
"a  c #545B5B",
"s  c #5C5E59",
"d  c #615E56",
"f  c #625F59",
"g  c #5C615E",
"h  c #636057",
"j  c #64625B",
"k  c #69665D",
"l  c #6B685F",
"z  c #545D61",
"x  c #5B6363",
"c  c #57646B",
"v  c #596468",
"b  c #5D696D",
"n  c #5B6971",
"m  c #636563",
"M  c #626864",
"N  c #6C6A63",
"B  c #616769",
"V  c #646B6B",
"C  c #6C6E6A",
"Z  c #716D65",
"A  c #716F6A",
"S  c #6D716D",
"D  c #73716A",
"F  c #79756C",
"G  c #77786F",
"H  c #7B796F",
"J  c #747571",
"K  c #7A7770",
"L  c #777873",
"P  c #7B7B74",
"I  c #777F7A",
"U  c #7C7F79",
"Y  c #807E76",
"T  c #817F79",
"R  c #7F827D",
"E  c #818077",
"W  c #83837B",
"Q  c #89867D",
"!  c #8A887E",
"~  c #848681",
"^  c #878B85",
"/  c #8A8B84",
"(  c #8D8F88",
")  c #918E85",
"_  c #8E918A",
"`  c #959287",
"'  c #94948C",
"]  c #9B998E",
"[  c #929791",
"{  c #979992",
"}  c #9A9B94",
"|  c #929C9B",
" . c #A19F95",
".. c #9EA097",
"X. c #9DA099",
"o. c #A2A196",
"O. c #A3A39A",
"+. c #A8A89E",
"@. c #A7AAA2",
"#. c #ADACA3",
"$. c #ADAFA8",
"%. c #B0AEA4",
"&. c #B6B5AC",
"*. c #B9B7AC",
"=. c #ABB7B5",
"-. c #ACBAB8",
";. c #BAB9B1",
":. c #BFC0BA",
">. c #BFC7C2",
",. c #C2C9C4",
"<. c #D1D5CF",
"1. c #F5FBF9",
"2. c None",
/* pixels */
"2.2.2.2.2.2.2.2.2.2.2.2.2._ R R ..$.:.2.2.2.2.2.2.2.2.2.2.2.2.2.",
"2.2.2.2.2.2.2.2.2.2._ N 9 = % % = 9 g S P P 2.2.2.2.2.2.2.2.2.2.",
"2.2.2.2.2.2.2.2.,.R 3 $ = - 7 3 q q - - # # q H 2.2.2.2.2.2.2.2.",
"2.2.2.2.2.2.2.<.S y L E P D N k k l k h p 7 % - N ` 2.2.2.2.2.2.",
"2.2.2.2.2.1.>.j P X...O.) P Z Z l k p d p p d 7 % d ` 2.2.2.2.2.",
"2.2.2.2.1.-.M [ @.O.} O.' Q Y A D l h p d d q q k 3 p ` 2.2.2.2.",
"2.2.2.2.,.S [ X.^ }  .%.O.! P Z k p d d k d d k d l 7 d ) 2.2.2.",
"2.2.2.=.S ^ | ( _ O.&.+.o.+. .) W H l q q d k k k k Z - k 2.2.2.",
"2.2.| V V _ ~ _ } #.+.&.;.O._ T A N F Y Z q h Z l k d l - Y 2.2.",
"2.2.v 5 S R W { @.o.&.;.] Q ` ) K u 1 7 Z Y 7 h l k d d d q 2.2.",
"2.r > 2 g S ~ [ [ ..#.O.#.%. .o.) K d 7 - l Y 7 k d d 7 q 7 l 2.",
"2.> & 6 y g I ^ R _ O.] O.*.#.#. .' Y d d % Z Z 0 k d q 7 3 q 2.",
"2.: & 5 9 a S L D ! ] O.o.*.#.` Q Y F T h 0 - Q q k k q q q - 2.",
"2.> & > < g C j m ^ ~ ' ]  .] ! T A d Z H h q Y Z h h p p q - - ",
"w : > , 2 i s 9 s J G K W / W Y Z N k d Z Z q k Z q h q 3 q - - ",
"r w 5 , 2 e y < i J x j P E P Z Z Z N N Z F - h F - h q 3 7 - < ",
"c e 6 5 6 6 y - 6 C f y s f f u d p u u j Z 0 d l 7 d q 1 3 < = ",
"n v r a 9 2 6 < - C m < y u p s p d p p f N f f d q d q 3 3 = * ",
"2.n b x 2 5 y 5 O V s 6 < s s f f j f f f u u N q d d 7 - < = * ",
"2.b V x 5 6 a y @ < A 6 1 1 u p p s p u u y u p 8 f d 7 - = * 2.",
"2.z n a 5 - 6 9 < o y m y 6 y y y p u f j u u u h k p 3 1 1 2 2.",
"2.w v t 4 : < 9 9 <   9 N s 3 s j s N m p 8 u u k p y 7 6 9 < 2.",
"2.2.r t : 4 : 5 e 9 -   * y s s j j f 8 3 8 8 d s y 0 0 0 s 2.2.",
"2.2.& a 4 < < - 5 9 9 3 $ @ # * * < < 3 0 p j f p 9 9 3 s i 2.2.",
"2.2.2.5 x > > & < 2 e y y e 2 < 3 6 u u u j j u y 0 3 s g 2.2.2.",
"2.2.2.2.e a & , , 6 3 9 0 i p i j m f s s s s p p 0 s D y 2.2.2.",
"2.2.2.2.2.a V > 4 6 5 5 5 9 i p s f s p p u s s 9 s G s 2.2.2.2.",
"2.2.2.2.2.2.t V , & 5 6 2 6 e 6 6 6 6 y s s y 6 N R N 2.2.2.2.2.",
"2.2.2.2.2.2.2.5 B a > * > 6 6 5 6 i 0 6 0 y s J P j 2.2.2.2.2.2.",
"2.2.2.2.2.2.2.2.+ e x a 5 4 2 < 5 6 9 s M S V i 2.2.2.2.2.2.2.2.",
"2.2.2.2.2.2.2.2.2.2.X 4 z B B B B C V V x 6 2.2.2.2.2.2.2.2.2.2.",
"2.2.2.2.2.2.2.2.2.2.2.2.2.2.; , 4 5 2.2.2.2.2.2.2.2.2.2.2.2.2.2."
};
