/* XPM */
static char *_Rn9Q2Co[] = {
/* columns rows colors chars-per-pixel */
"64 64 171 2 ",
"   c #1E1F1D",
".  c #1F201E",
"X  c #21211E",
"o  c #1F2427",
"O  c #242422",
"+  c #292926",
"@  c #242A2D",
"#  c #2B2D2B",
"$  c #282623",
"%  c #2F312F",
"&  c #32322E",
"*  c #292F32",
"=  c #262D32",
"-  c #2D3435",
";  c #2E3539",
":  c #2E383A",
">  c #343533",
",  c #373835",
"<  c #3B3B36",
"1  c #343A3B",
"2  c #3A3D3B",
"3  c #343637",
"4  c #403F3B",
"5  c #3E403E",
"6  c #43433E",
"7  c #48463E",
"8  c #353E41",
"9  c #393F40",
"0  c #374041",
"q  c #3D4343",
"w  c #3D4649",
"e  c #3F484E",
"r  c #434643",
"t  c #494741",
"y  c #454946",
"u  c #4B4B45",
"i  c #414749",
"p  c #444A4A",
"a  c #4B4D4A",
"s  c #514E47",
"d  c #514F49",
"f  c #4E514E",
"g  c #53534C",
"h  c #59564E",
"j  c #5A584F",
"k  c #515047",
"l  c #444D51",
"z  c #424F58",
"x  c #4C5352",
"c  c #4B555B",
"v  c #4F5959",
"b  c #455154",
"n  c #545552",
"m  c #595750",
"M  c #555955",
"N  c #5C5A54",
"B  c #535A5A",
"V  c #5C5D59",
"C  c #52575A",
"Z  c #615E55",
"A  c #615F59",
"S  c #5E615D",
"D  c #57605E",
"F  c #646157",
"G  c #64635C",
"H  c #69665D",
"J  c #6C695F",
"K  c #67685F",
"L  c #525E64",
"P  c #585E62",
"I  c #4B5860",
"U  c #566162",
"Y  c #5C6464",
"T  c #5C6669",
"R  c #5D696C",
"E  c #55636B",
"W  c #5D6A72",
"Q  c #646662",
"!  c #696760",
"~  c #656965",
"^  c #6C6B63",
"/  c #636B6B",
"(  c #6D6E6A",
")  c #716E64",
"_  c #706F69",
"`  c #6E706A",
"'  c #67706D",
"]  c #737166",
"[  c #74736B",
"{  c #79766D",
"}  c #7C796E",
"|  c #636E72",
" . c #686F71",
".. c #6D7475",
"X. c #697577",
"o. c #747572",
"O. c #797670",
"+. c #757974",
"@. c #7C7B73",
"#. c #767C7B",
"$. c #7B7E79",
"%. c #717679",
"&. c #817E75",
"*. c #7D817B",
"=. c #848176",
"-. c #84837B",
";. c #89867D",
":. c #8B897E",
">. c #7C8284",
",. c #7E8885",
"<. c #848582",
"1. c #858984",
"2. c #8C8C84",
"3. c #868C8C",
"4. c #8B8D89",
"5. c #868784",
"6. c #918E82",
"7. c #8D918B",
"8. c #8C9086",
"9. c #939187",
"0. c #94938B",
"q. c #99978C",
"w. c #97998D",
"e. c #9A998E",
"r. c #888F91",
"t. c #8C9393",
"y. c #949591",
"u. c #959993",
"i. c #9C9B93",
"p. c #949B9A",
"a. c #9C9D99",
"s. c #9A9792",
"d. c #A19F94",
"f. c #A09E98",
"g. c #9FA097",
"h. c #9DA29C",
"j. c #A2A196",
"k. c #A3A39B",
"l. c #A8A69C",
"z. c #ABA99E",
"x. c #A6A89E",
"c. c #9CA7A2",
"v. c #A5A9A1",
"b. c #ABABA3",
"n. c #A6A9A3",
"m. c #B1AEA3",
"M. c #AFB1AF",
"N. c #B3B1A6",
"B. c #B3B3AB",
"V. c #B9B9AF",
"C. c #B9B6AD",
"Z. c #B3B9B2",
"A. c #BCBBB3",
"S. c #B9B9B3",
"D. c #C0BFB4",
"F. c #BFC0B6",
"G. c #C3C3BA",
"H. c #BBC5C1",
"J. c #BCD1D0",
"K. c #CBCAC2",
"L. c #C6C7C3",
"P. c #C9DAD7",
"I. c #D2DBD7",
"U. c #DBE3DD",
"Y. c #E2E2DB",
"T. c #DDE4E0",
"R. c #E4E9E5",
"E. c #E8EBE9",
"W. c #EEF1F0",
"Q. c #F4F6F4",
"!. c None",
/* pixels */
"!.!.!.!.!.!.!.!.!.!.!.!.!.!.!.!.!.!.!.!.!.!.!.!.!.!.!.!.!.!.!.!.!.!.!.!.!.!.!.!.!.!.!.!.!.!.!.!.!.!.!.!.!.!.!.!.!.!.!.!.!.!.!.!.",
"!.!.!.!.!.!.!.!.!.!.!.!.!.!.!.!.!.!.!.!.!.!.!.!.!.u.1.*.*.` o.*.1.0.h.x.n.Z.A.F.!.!.!.!.!.!.!.!.!.!.!.!.!.!.!.!.!.!.!.!.!.!.!.!.",
"!.!.!.!.!.!.!.!.!.!.!.!.!.!.!.!.!.!.!.!.!.M.1.+.K S n f 7 5 7 5 t n G ) @.4.u.y.0.7.s.!.!.!.!.!.!.!.!.!.!.!.!.!.!.!.!.!.!.!.!.!.",
"!.!.!.!.!.!.!.!.!.!.!.!.!.!.!.!.!.!.!.F.8.` S M 5 % $ . . . . + $ O X O $ # < u G [ ` ~ $.!.!.!.!.!.!.!.!.!.!.!.!.!.!.!.!.!.!.!.",
"!.!.!.!.!.!.!.!.!.!.!.!.!.!.!.!.!.L.h.*.` g , O X , 5 6 7 k 7 g h h h m k y < & O $ 2 a S ( -.!.!.!.!.!.!.!.!.!.!.!.!.!.!.!.!.!.",
"!.!.!.!.!.!.!.!.!.!.!.!.!.!.!.E.F.c.,.D % # 5 f S F N j j D g j G F G Z Z Z g g u 6 #   # h ^ ! 2.!.!.!.!.!.!.!.!.!.!.!.!.!.!.!.",
"!.!.!.!.!.!.!.!.!.!.!.!.!.!.E.Y.Z.[ > 5 K *.) ) ^ ] ^ S K J Z j ^ G ) ^ G H A N h g g u < X & Z { @.!.!.!.!.!.!.!.!.!.!.!.!.!.!.",
"!.!.!.!.!.!.!.!.!.!.!.!.!.U.U.Z.a 5 ^ :.*.;.9.8.-.{ *.K ) ^ K S ^ m ^ ^ Z Z Z g Z F Z s s j < X t ^ } 9.!.!.!.!.!.!.!.!.!.!.!.!.",
"!.!.!.!.!.!.!.!.!.!.!.W.R.I.7., D w.2.0.w.k.z.q.9.6.-.O._ ^ A ^ ) F H G Z Z G Z Z Z h h Z m h h + + ] { 9.!.!.!.!.!.!.!.!.!.!.!.",
"!.!.!.!.!.!.!.!.!.!.Q.T.P.<., *.y.7.k.x.u.7.h.w.e.-.@.&.O.&.} _ [ ) ] ) Z Z h Z h g Z h m Z s h F 7 X H =.9.!.!.!.!.!.!.!.!.!.!.",
"!.!.!.!.!.!.!.!.!.Q.P.P.+.6 x.7.a.B.b.w.k.g.g.k.k.9.6.&._ ^ ! H G G Z Z Z m N Z Z Z h Z Z h h Z j J j X Z =.:.!.!.!.!.!.!.!.!.!.",
"!.!.!.!.!.!.!.!.W.R.J.Y y h.3.h.x.k.0.x.w.i.N.b.0.-.&.:.5.:.&.&.@.&.} ^ J Z h g Z H J Z Z g Z Z H j H H X H ;.:.!.!.!.!.!.!.!.!.",
"!.!.!.!.!.!.!.!.T.T.*.f c.3.h.x.,.7.h.0.k.b.i.i.f.x.d.s.5.&.[ ] J G H G H ^ ^ G Z Z Z Z A H Z H F Z H H F X J &.6.!.!.!.!.!.!.!.",
"!.!.!.!.!.!.!.I.U.7.f c.1.g.h.8.7.2.8.x.v.0.j.G.A.d.;.@.{ ) A A G Z g g h d Z G J ^ H g Z ] Z Z H Z A J H F + J { q.!.!.!.!.!.!.",
"!.!.!.!.!.!.J.F.h.q u.3.y.v.1.7.2.8.b.s.s.F.A.b.q.6.6.6.6.;.O.O.{ ! H Z N d d s d G J A Z h J J Z H J H H ] h + ] } !.!.!.!.!.!.",
"!.!.!.!.!.!.c.v.b *.7.3.g.7.g.1.0.k.7.b.K.A.i.q.j.x.N.S.D.C.N.C.j.i.s.4.@.) N h m s h J ) J Z J J J G m J F ) 6 7 } } !.!.!.!.!.",
"!.!.!.!.!.h.p.U n r.*.g.1.*.-.3.h.2.j.F.B.0.l.N.D.L.D.D.f.0.&.O._ _ &.&.5.4.5._ Z m d d Z J ) Z H [ A H H Z H ) & Z &.!.!.!.!.!.",
"!.!.!.!.t.,.X.5 *.*.8.8.*.1.1.k.2.k.G.g.w.z.C.K.M.S.d.&.O.O.{ ! ! d d g m ! &.4.6.) F m t H ) ) Z ) ) H j Z H ) j 4 ) &.!.!.!.!.",
"!.!.!.!.%.| q v / ~ 7.-.;.*.i.0.g.Z.i.e.N.V.G.G.f.O.$._ 0.e.9.6.5._ d t d u d G _ s.&.m Z t Z ) { h J J Z Z h H J 4 s ) { !.!.!.",
"!.!.!...Y n - Y D ..*.+.+.3.0.w.N.k.q.z.N.G.N.g.0.f.b.6.d.d.q.2.<.5._ G h 4 4 4 s N q.;.Z h s J ] G Z ) Z h h j H Z 4 H G !.!.!.",
"!.!.!.v b - 0 b B ' ` -.*.7.-.v.g.w.l.b.N.N.l.g.M.A.C.q.e.z.z.d.5.s.&.&.H Z s s t d u 9.&.h N h H J Z Z Z h Z s k H 4 j J !.!.!.",
"!.!.!.l p - f p B B S ~ 3.$.4.h.,.0.0.j.N.l.k.B.f.a.b.D.j.j.e.q.9.&.A A &.J d Z N 6 s s 9.&.h s j J H Z J Z 7 s s j k < J H !.!.",
"!.!.p w : 3 x p B B D ~ *.@.u.1.-.2.$.i.l.u.w.j.i.b.C.z.9.d.C.C.D.C.l.;.N d d m G u 4 t h d.J h s H J Z Z F j s 7 h j & j G !.!.",
"!.!.e q @ w p p n M n R Q *.w.+.*.@.@.k.h.a.0.w.d.z.C.C.D.D.N.d.9.s.s.l.b.;.h F Z N t t 4 &.s.h s j J H j H j h s j j 4 u g !.!.",
"!.!.w 1 * x 9 p M D M Y Q #.$.@.-.` *.u.y.b.x.j.i.d.D.G.D.d.e.q.-.&.&.J ! s.l.m Z Z h 4 s s 9.&.j h J ) Z F H h 7 g j 7 5 j F !.",
"!.!.9 : - w 0 a i f B G Q #.~ o.o.G 7.-.-.0.d.b.d.d.m.m.j.j.9.:.5.&.&.) ! s &.m.g Z A d t 7 &.d.Z h F J H j Z k h F S j 5 7 j !.",
"!.w e 9 3 9 9 y i p M S ( [ Q ` V Q i.4.$.9.q.d.d.e.j.l.d.i.:.-.&.&.&.&.) ! d &.f.h A ) Z u Z f.J h j ) H j F F F S j j , 5 6 !.",
"!.w w 1 0 0 0 i 5 y D G ~ Q V Q a ( 5.5.<.<.9.6.9.q.q.e.d.6.:.;.&.&._ ! A ! ! t &.&.h ! ! h u 6.&.h j J J j j F h k j j 5 5 5 !.",
"!.l w * w 0 q i y i M B S G V M 6 o.$.~ <.5.<.O.-.0.6.9.9.:.;.&._ &.) H ! H ! F h &.A Z J j 7 &.=.h h F H j j j k 7 j S 5 5 6 !.",
"!.l l - i i i q y i M n B M n a 2 ( <.M N o.+.! @.-.2.&.=.{ { &.! ! ! A H F H A Z { &.Z j 7 7 J =.h 7 h F j j F 7 6 k n 6 < 6 !.",
"!.z c 1 p i i q y p f f V f n u , o.$.[ Q ~ S N 6.;.@.@.+.[ ) ^ _ _ &.&.! F J ! Z ) &.A Z h 7 &.=.j h h Z j h h 7 6 k g 6 5 u y ",
"!.c c r v p a 2 q f a f x a a y % o.$.^ Q ( ! f @.o.-.-.&.&.[ ( _ ) ! G ) _ ! ) ] J &.Z j h 7 J :.Z 7 j Z S h j k s k j u 7 q 5 ",
"!.L c q b p y q a x a f B f a p # ( %.G V Q A u _ G _ ) ) ! V A A ! ! ! m ! A ! ! ) _ A h d u H &.h s Z Z Z h Z t 4 r d y 4 2 6 ",
"!.R E e b x e a a f p y n a y t + G o.Y A V n 4 C m g g d a g d g m d m d a d s d ! ) ! H d u H &.s t h Z Z h Z t 4 y d y 4 2 2 ",
"!.E W x v v f M M y i y n a a u # f #.G Q Q n 3 m G g m n N g Z N N m m N m m m m H ! ! ) Z u ) &.s s F Z Z h Z t t s d 6 3 r !.",
"!.W W U U v v S n i p y n f y t & 4 $.A Q Y m > g G n A A G G Q ! A A ! ! A N ! ! ! ! ! ! Z d _ F h s F Z m h d s t d d t q 2 !.",
"!.W X.| U T / D a y x y a g y y * + o.! C A M 4 3 A d C A A G Q V A ! ! A A N N H ! d N A N N &.h s h Z Z Z g s 5 6 u t 2 i 2 !.",
"!.c L | U / ' D q q a a M B a a 2 X n 5.f n d C & a A N m n n G N A A A A A m N A m m d m g Z ) s s m Z F Z d s 6 6 y 5 , r 2 !.",
"!.!.E X.U R ' v i i i n V S M y r # + %.o.g f g a > f V m m V G m N A N N A N A N d m m h h ! N s d Z H Z h h u u < 6 5 5 5 1 !.",
"!.!.E X.R R Y B n a y f g M M q u 3 X u 4.m n f d d & r M S A m m V A N V N g m m g m N g N A h d h A Z Z h A u 6 t 5 2 r 2 1 !.",
"!.!.z W | T / U M q y r r M M a i 6 * X A o.C u f G n 9 t u d g m V V N N n n A ( N A m g m m m j G K G j j n r t f 5 5 y 5 !.!.",
"!.!.l I X.B B B x 1 w y y f n f i u 4 # O Q %.m d n ( n V S d d a d g g G G ! A G A N g g A N m F ^ G J k S k u 5 a y a f q !.!.",
"!.!.!.z | / p B i 5 5 5 y 5 x f n r r 3 O o G #.V f g f u g G _ ! G G A A N N A A V d d m m m g J G N j g j g t u t r n p 5 !.!.",
"!.!.!.z c ..v b p q 0 q q q y f C a u u 3   O n %._ Q d y d d P V A A P ! _ ! A V d a d m m d N K Z S k S g k a g a n n 5 !.!.!.",
"!.!.!.!.w | D q w q q q 1 r q f n M g r t 3 X   2 ! o._ N n n n N m A G _ o.! m s t d N d d N ! M Q g N S g k g a a ~ n 1 !.!.!.",
"!.!.!.!.w c R w q p e q 9 i u r n n C d 6 a q + X + 3 n ~ ( ( G ! ^ ! G A d u t t d g d a N N A G h m n g j g j u n ^ g !.!.!.!.",
"!.!.!.!.: 0 R v 0 a i 9 9 i 5 r i f f M i r r u < # O . + 2 5 y u u u 6 4 > 4 d n d d g N ! A N m n h a f a g k u ~ M g !.!.!.!.",
"!.!.!.!.!.0 p ' p q p 5 q r 9 9 a q i a f d y i p a p 5 > $ $ # * + > 4 u u d m m d N ! A A ! m m G f a f t g 5 S ~ f !.!.!.!.!.",
"!.!.!.!.!.!.1 v X.1 5 b q 5 5 0 p q 7 f D n D f t a a f n p a u d u d f n m g g s n G ! ! ! M d S g n n a n t g $.M f !.!.!.!.!.",
"!.!.!.!.!.!.0 8 ../ ; w w 2 5 0 5 y b 5 a M v n D j n t t y u a f n n n n n g m Z M V ^ G g N A k g g a m a u @.Q a !.!.!.!.!.!.",
"!.!.!.!.!.!.!.0 w *.U = q p 0 5 q p q n y p n n M g M S M g a n n A A A A A A m Z G A A g M V M Z n n M n 7 $.-.n !.!.!.!.!.!.!.",
"!.!.!.!.!.!.!.!.1 w ,.x : f p 1 w p w f p f 5 a n g M N G B V V A Q ^ G A A Q A A m n V ! Q N n G m N M t +.2.M n !.!.!.!.!.!.!.",
"!.!.!.!.!.!.!.!.!.- x t.v 0 p i r y n n t 5 f f q p f N D S G S Y ! ! ( ^ Z C n n A A m M ! N N m V n , o.5.m n !.!.!.!.!.!.!.!.",
"!.!.!.!.!.!.!.!.!.; w v t.T 1 y b y e p y p b i b a a f a f a g d n g C d h Z Z V n m C V N N f n a 2 $.4.N V !.!.!.!.!.!.!.!.!.",
"!.!.!.!.!.!.!.!.!.!.q 1 b 3...1 1 w q w w a p a f 5 f p f f a m n n a n n C Z g m n S m n f Q Q a g 0.i.! ^ !.!.!.!.!.!.!.!.!.!.",
"!.!.!.!.!.!.!.!.!.!.!.!.: : >.,.p @ 5 p w p y y 5 5 x a n M x y y f a g d a a n C V M M Q N u r G f.5.Q _ !.!.!.!.!.!.!.!.!.!.!.",
"!.!.!.!.!.!.!.!.!.!.!.!.!.1 ; Y r.T - - 0 p p p i p a f l a a r a r n N a d f a n N A Q M < 2 5.h.+.K Q !.!.!.!.!.!.!.!.!.!.!.!.",
"!.!.!.!.!.!.!.!.!.!.!.!.!.!.; 1 w >.t.P ; @ 5 i p a p x i r 9 a a i a g f f V V M G a 4 a o.a.5.Q N !.!.!.!.!.!.!.!.!.!.!.!.!.!.",
"!.!.!.!.!.!.!.!.!.!.!.!.!.!.!.!.; - c 3.3.Y 1 o # 3 9 p n M n n C n C P V f f r 3 4 n $.p.<.x a ~ !.!.!.!.!.!.!.!.!.!.!.!.!.!.!.",
"!.!.!.!.!.!.!.!.!.!.!.!.!.!.!.!.!.; = @ l %.t.>.P q - # - 3 1 1 4 q < 2 < 2 9 V %.y.p.$.n 9 i !.!.!.!.!.!.!.!.!.!.!.!.!.!.!.!.!.",
"!.!.!.!.!.!.!.!.!.!.!.!.!.!.!.!.!.!.!.* @ o ; P >.t.t.3.#. .P V C Q / $.3.y.p.s.<.B r q p !.!.!.!.!.!.!.!.!.!.!.!.!.!.!.!.!.!.!.",
"!.!.!.!.!.!.!.!.!.!.!.!.!.!.!.!.!.!.!.!.!.!.@ = = : e C | >.5.3.<.<.4.#.Y C i 9 1 2 9 !.!.!.!.!.!.!.!.!.!.!.!.!.!.!.!.!.!.!.!.!.",
"!.!.!.!.!.!.!.!.!.!.!.!.!.!.!.!.!.!.!.!.!.!.!.!.!.1 ; = * * ; 8 ; ; 9 9 - w 9 !.!.!.!.!.!.!.!.!.!.!.!.!.!.!.!.!.!.!.!.!.!.!.!.!.",
"!.!.!.!.!.!.!.!.!.!.!.!.!.!.!.!.!.!.!.!.!.!.!.!.!.!.!.!.!.!.!.!.!.!.!.!.!.!.!.!.!.!.!.!.!.!.!.!.!.!.!.!.!.!.!.!.!.!.!.!.!.!.!.!."
};
