/* XPM */
static char *dVoSicEY[] = {
/* columns rows colors chars-per-pixel */
"16 16 179 2 ",
"   c #3C403E",
".  c #3E403E",
"X  c #41433E",
"o  c #373E41",
"O  c #394041",
"+  c #3C4242",
"@  c #3D4343",
"#  c #3E4342",
"$  c #3F4443",
"%  c #3D4345",
"&  c #3F4646",
"*  c #404240",
"=  c #404340",
"-  c #424341",
";  c #444540",
":  c #424644",
">  c #424745",
",  c #424746",
"<  c #444644",
"1  c #464745",
"2  c #474842",
"3  c #474A45",
"4  c #4A4A44",
"5  c #484946",
"6  c #494A46",
"7  c #4C4B45",
"8  c #4F4E47",
"9  c #444A4A",
"0  c #41494D",
"q  c #474C4C",
"w  c #474D4E",
"e  c #4A4B48",
"r  c #4A4E4B",
"t  c #4C4E4A",
"y  c #4C4E4B",
"u  c #4F4F4A",
"i  c #4A4E4C",
"p  c #4B4F4C",
"a  c #4B4F4D",
"s  c #514F47",
"d  c #4C504E",
"f  c #4D514E",
"g  c #4E514F",
"h  c #50514C",
"j  c #52514C",
"k  c #50524D",
"l  c #53524C",
"z  c #50524E",
"x  c #50524F",
"c  c #56534C",
"v  c #51544F",
"b  c #55544C",
"n  c #55544D",
"m  c #55554D",
"M  c #56544E",
"N  c #57544E",
"B  c #57554F",
"V  c #58564F",
"C  c #59574F",
"Z  c #5A574F",
"A  c #5A584F",
"S  c #4C5353",
"D  c #495254",
"F  c #4B5354",
"G  c #4B5355",
"H  c #4C5256",
"J  c #515552",
"K  c #555551",
"L  c #545653",
"P  c #575753",
"I  c #585651",
"U  c #565953",
"Y  c #535855",
"T  c #575954",
"R  c #5B5951",
"E  c #585853",
"W  c #595853",
"Q  c #5B5953",
"!  c #5D5A51",
"~  c #5C5C52",
"^  c #585954",
"/  c #5B5B54",
"(  c #5B5B55",
")  c #595A57",
"_  c #5A5B57",
"`  c #5D5B54",
"'  c #5D5B55",
"]  c #5E5B54",
"[  c #5F5D54",
"{  c #5E5C55",
"}  c #5E5C56",
"|  c #5E5D57",
" . c #505859",
".. c #52585A",
"X. c #5A5B58",
"o. c #5B5C59",
"O. c #5D5E59",
"+. c #5F5E58",
"@. c #5F5E59",
"#. c #5F5F59",
"$. c #5C5E5B",
"%. c #585D5D",
"&. c #5A5E5F",
"*. c #605C53",
"=. c #605D54",
"-. c #605D55",
";. c #605E54",
":. c #615E54",
">. c #615E56",
",. c #615E57",
"<. c #625F56",
"1. c #605F5A",
"2. c #646057",
"3. c #62615A",
"4. c #646158",
"5. c #666259",
"6. c #65635B",
"7. c #66635B",
"8. c #61635C",
"9. c #63625C",
"0. c #67645C",
"q. c #66645D",
"w. c #68655C",
"e. c #6A675F",
"r. c #6B685E",
"t. c #6B685F",
"y. c #555F61",
"u. c #535F65",
"i. c #5D6360",
"p. c #5C6667",
"a. c #5B686F",
"s. c #616462",
"d. c #646561",
"f. c #6B6861",
"g. c #686863",
"h. c #6D6A61",
"j. c #6C6A62",
"k. c #6C6A63",
"l. c #6A6C67",
"z. c #6E6D67",
"x. c #616A69",
"c. c #6E6F6A",
"v. c #706E67",
"b. c #74736A",
"n. c #76736B",
"m. c #71716C",
"M. c #79766C",
"N. c #727772",
"B. c #777873",
"V. c #7A7970",
"C. c #7E7C73",
"Z. c #797A74",
"A. c #7E837E",
"S. c #828178",
"D. c #86837B",
"F. c #848882",
"G. c #898D87",
"H. c #8F8D84",
"J. c #8D8F87",
"K. c #908E85",
"L. c #908F86",
"P. c #90928B",
"I. c #95958D",
"U. c #95968E",
"Y. c #909691",
"T. c #919893",
"R. c #9E9C91",
"E. c #9B9D96",
"W. c #A1A096",
"Q. c #A3A19A",
"!. c #A4A49B",
"~. c #A7A69B",
"^. c #A5A49C",
"/. c #AAA89D",
"(. c #A9A8A0",
"). c #A9AAA1",
"_. c #B4B3A9",
"`. c #C8D2D0",
"'. c None",
/* pixels */
"'.'.'.'.'.'.v x g.Z.'.'.'.'.'.'.",
"'.'.'.'.A.8./ m R m 7 l '.'.'.'.",
"'.'.`.Y.J.!.L.n.h.<.<.c V M.'.'.",
"'.'.T.G.E.).W.D.v.7.] w.7.[ '.'.",
"'.x.N.P.!._.Q.L.z.1.g.4.t.<.*.'.",
"'.% i.F.U.^././.L.<.m t.2.R s ] ",
"o O Y l.B.U.!.R.C.n.2.6.t.2.b 2 ",
"0 @ d x d.m.S.V.h.7.j.[ 2.A s X ",
"p.S i 1 X.X./ +.+.' q.<.*.V 7 X ",
"a.p.i y 1 X.5 / [ ' Q ' ' V X   ",
"'.y.$ i @ 5 _ U +.7.I V 4.m 5 : ",
"'.D : * d   - 5 x x j ' P u U '.",
"'.'.F @ , J x u K P +.+.d +.'.'.",
"'.'.'. .9 : r L P / T T g.c.'.'.",
"'.'.'.'.H w q i S L +.s.'.'.'.'.",
"'.'.'.'.'.'.H ..%.&.'.'.'.'.'.'."
};
